# Blender v2.93.3 OBJ File: 'untitled.blend'
# www.blender.org
mtllib myfirst.mtl
o Cube
v -1.620520 1.091050 0.336308
v -0.918783 -0.557409 -1.358356
v 0.223291 1.542388 -0.293497
v 0.842371 0.384519 -1.463747
v -0.854196 -0.211390 1.646421
v -0.211467 -1.715517 0.110823
v 0.989615 0.239948 1.016616
v 1.549687 -0.773589 0.005433
vt 0.142333 0.354305
vt 0.901667 0.331126
vt 0.897667 0.809603
vt 0.139667 0.812914
vt 0.231170 0.342803
vt 0.789170 0.329558
vt 0.769000 0.788080
vt 0.224333 0.758278
vt 0.223000 0.354305
vt 0.830333 0.334437
vt 0.853000 0.793046
vt 0.211000 0.812914
vt 0.125000 0.500000
vt 0.375000 0.500000
vt 0.375000 0.750000
vt 0.125000 0.750000
vt 0.625000 0.500000
vt 0.625000 0.750000
vt 0.375000 0.250000
vt 0.625000 0.250000
vn 0.0572 0.7246 0.6868
vn 0.8688 0.4946 -0.0227
vn 0.3694 -0.5677 0.7357
vn 0.3155 -0.6655 -0.6765
vn -0.3704 0.5724 -0.7315
vn -0.8891 -0.4521 0.0712
usemtl Material.006
s off
f 1/1/1 5/2/1 7/3/1 3/4/1
f 4/5/2 3/6/2 7/7/2 8/8/2
f 8/9/3 7/10/3 5/11/3 6/12/3
f 6/13/4 2/14/4 4/15/4 8/16/4
f 2/14/5 1/17/5 3/18/5 4/15/5
f 6/19/6 5/20/6 1/17/6 2/14/6
